<?xml version="1.0" encoding="utf-8"?>
<!-- Generator: Adobe Illustrator 26.0.3, SVG Export Plug-In . SVG Version: 6.00 Build 0)  -->
<svg version="1.1" id="Layer_1" xmlns="http://www.w3.org/2000/svg" xmlns:xlink="http://www.w3.org/1999/xlink" x="0px" y="0px"
	 viewBox="0 0 240 240" style="enable-background:new 0 0 240 240;" xml:space="preserve">
<style type="text/css">
	.st0{fill:#6B6B6B;}
</style>
<g>
	<path class="st0" d="M58.4,66.8c-1.3-38.7,31-65.4,63-64.6c33.7,0.9,60.8,28.5,60.4,62.3c-0.3,35-27.9,62.1-63.1,61.4
		C84.3,125.3,59.4,96.9,58.4,66.8z"/>
	<path class="st0" d="M223,193.5c-25.3,25.9-56,40.8-92.2,43.7c-2.8,0.3-5.4,0.4-7.7,0.6c-41.3,0-76-14.3-104.8-43.4
		c-5.2-5.2-5.1-5.4-1-11.6c12.6-19.4,29-34.6,49.7-44.7c8.7-4.2,17.2-3.8,25.9,0.1c15.8,7.2,31.9,8.1,48.4,2.5
		c5.4-1.9,10.7-4.5,16.2-5.2c4.5-0.6,9.8,0,13.9,1.9c22.4,10.1,39.5,26.5,52.8,47.1C226.7,188.1,225.9,190.6,223,193.5z"/>
</g>
</svg>
