<?xml version="1.0" encoding="utf-8"?>
<!-- Generator: Adobe Illustrator 26.0.3, SVG Export Plug-In . SVG Version: 6.00 Build 0)  -->
<svg version="1.1" id="Layer_1" xmlns="http://www.w3.org/2000/svg" xmlns:xlink="http://www.w3.org/1999/xlink" x="0px" y="0px"
	 viewBox="0 0 1391.6 703.7" style="enable-background:new 0 0 1391.6 703.7;" xml:space="preserve">
<style type="text/css">
	.st0{display:none;}
	.st1{display:inline;opacity:0.1;}
	.st2{fill:url(#SVGID_1_);}
	.st3{fill:none;stroke:url(#SVGID_00000142888403271167472620000006484654270491371688_);stroke-miterlimit:10;}
</style>
<g id="Layer_1_00000029042208096305779120000003092298163825939586_" class="st0">
	<g id="Layer_1_00000102545906944726231080000002439309275522888363_" class="st1">
		
			<linearGradient id="SVGID_1_" gradientUnits="userSpaceOnUse" x1="695.8" y1="865.5" x2="695.8" y2="10.8" gradientTransform="matrix(1 0 0 -1 0 892)">
			<stop  offset="0" style="stop-color:#666666;stop-opacity:0"/>
			<stop  offset="0.2588" style="stop-color:#636363"/>
			<stop  offset="0.3854" style="stop-color:#5D5D5D;stop-opacity:0.8292"/>
			<stop  offset="0.5517" style="stop-color:#4D4D4D;stop-opacity:0.6048"/>
			<stop  offset="0.7401" style="stop-color:#313131;stop-opacity:0.3507"/>
			<stop  offset="0.9433" style="stop-color:#0C0C0C;stop-opacity:7.645279e-02"/>
			<stop  offset="1" style="stop-color:#000000;stop-opacity:0"/>
		</linearGradient>
		<path class="st2" d="M1118.8,217.8h140.7l130.9,159.8l1.2-2.8L1106.6,27l-1.2,2.8l54.4,66.5h-115.4l-41.6-68l-0.6-1l-1.4,2.5
			l40.7,66.6H931.9l-28.4-68.8l-1.6,2l27.5,66.8h-115l-14-68.5l-1.9,1.1l13.9,67.2H697.7V28.5h-2v67.8h-113l10-49.2l3.6-18.1
			l-1.9-1.1l-13.9,68.4H464.1l20.1-48.8l7.5-18.1l-1.6-2l-7.5,18.1l-20.9,50.7H350.5l40.8-66.6l-1.4-2.5l-42.3,69h-112L290,29.6
			l-0.6-1.4v-1.7h-0.3L0,379.7l3.1,0.3L136,217.8h137.2L168.6,388.5H24v3.3h142.5l-0.1,0.2l-0.3,0.5V881h2V394l1.3-2.2h170.4
			l-0.2,0.5l-0.2,0.5v488.3h2V393.9l0.8-2h178.5l-0.2,1.2v488h2V393.6l0.3-1.7h173v489.2h2V391.9h175.6l0.4,1.7V881h2V393.1
			l-0.2-1.2h176l0.8,2v487.2h2V392.8l-0.4-0.9h168.4l1.3,2.2v487.1h2V392.6l-0.4-0.7h150.6c0.9,0,1.7-0.7,1.7-1.7l0,0
			c0-0.9-0.7-1.7-1.7-1.7h-152.6L1118.8,217.8z M1162.7,99.7l94,114.8h-139.9l-70.2-114.8H1162.7z M1043.8,99.7l70.1,114.8H980.6
			L933.3,99.7H1043.8z M930.9,99.7l47.4,114.7H838.9L815.2,99.7H930.9z M813.2,99.7l23.6,114.8H697.7V99.7H813.2z M695.7,99.7v114.8
			h-137L582,99.7H695.7z M462.7,99.7h117.2l-23.3,114.7H415.3L462.7,99.7z M348.4,99.7h111.8L413,214.5H278L348.4,99.7z
			 M138.8,214.4l94-114.7h112.7l-70.3,114.8L138.8,214.4L138.8,214.4z M171.4,388.5L276,217.8h135.5l-70.4,170.7H171.4z
			 M343.6,388.5L414,217.8h142l-34.6,170.7H343.6z M523.4,388.5L558,217.8h137.7v170.7H523.4z M697.7,388.5V217.8h139.8l35.2,170.7
			H697.7z M874.7,388.5l-35.2-170.7h140l70.4,170.7H874.7z M1052.5,388.5l-70.4-170.7H1116l104.3,170.7H1052.5z"/>
	</g>
</g>
<linearGradient id="SVGID_00000121277250840966636940000013616472383335226557_" gradientUnits="userSpaceOnUse" x1="697.8636" y1="704.2248" x2="697.8636" y2="-9.1183">
	<stop  offset="0" style="stop-color:#4A4A4A;stop-opacity:0"/>
	<stop  offset="0.5201" style="stop-color:#565656"/>
	<stop  offset="1" style="stop-color:#4D4D4D;stop-opacity:0"/>
</linearGradient>
<path style="fill:none;stroke:url(#SVGID_00000121277250840966636940000013616472383335226557_);stroke-miterlimit:10;" d="
	M72.3,355.6l-0.7-0.6c24.3-28.7,47-56.9,71.1-86.8c18.4-22.9,37.5-46.6,57.2-70.3c25.1-30.8,49.7-61.3,73.5-90.7
	c30-37.1,58.3-72.1,87.8-108.2l0.7,0.6c-29.5,36.1-57.8,71.2-87.8,108.2c-23.8,29.4-48.4,59.9-73.5,90.7
	c-19.7,23.8-38.8,47.4-57.2,70.3C119.4,298.7,96.6,326.9,72.3,355.6z M1424.6,354.9H61.7l-85.1,0.9h1353.6L1424.6,354.9z
	 M1323.6,355.2L1030.4-1.1l-0.7,0.6l293,356v348.1h0.9V355.2z M226.9,573c-0.1-71.3-0.3-145.1,0.3-218c0-2,1.7-3.5,3.3-5
	c0.4-0.4,0.8-0.7,1.2-1.1c1.9-2.5,2.9-5,3.9-7.4c0.5-1.2,1-2.4,1.6-3.6c38.8-61.8,73.3-118.3,109.9-178
	C369.2,123.8,392,86.5,415.8,48c3.7-6.1,7.2-12.2,10.6-18.2c5.7-10.1,11.7-20.4,18.5-30.3L444.2-1c-6.9,9.9-12.8,20.3-18.6,30.4
	c-3.4,5.9-6.9,12.1-10.6,18.1c-23.8,38.5-46.6,75.8-68.7,111.8c-36.6,59.8-71.2,116.2-110,178.1c-0.6,1.2-1.1,2.5-1.6,3.7
	c-1,2.4-2,4.8-3.8,7.1c-0.4,0.4-0.7,0.7-1.1,1.1c-1.7,1.5-3.6,3.2-3.6,5.6c-0.6,72.9-0.4,146.7-0.3,218c0.1,42.8,0.2,87.1,0.1,130.7
	l0.9,0C227.1,660.1,227,615.8,226.9,573z M378,703.7c-0.3-22.2-0.1-44.9,0.2-66.9c0.1-14.7,0.3-29.9,0.3-44.9
	c-0.6-52.9-0.4-107-0.2-159.4c0.1-26,0.2-53,0.2-79.3c20.2-45.9,39.8-92.6,58.7-137.7c12.6-30.1,25.7-61.3,38.8-91.9
	c4.7-11.4,9.4-22.8,14-34c12.1-29.6,24.6-60.1,37.7-90.2L526.8-1c-13.1,30.1-25.6,60.6-37.7,90.2c-4.6,11.3-9.3,22.6-14,34
	C462,153.9,449,185,436.4,215.1c-18.9,45.2-38.5,91.9-58.7,137.8l0,0.2c0,26.4-0.1,53.4-0.2,79.4c-0.2,52.4-0.4,106.5,0.2,159.4
	c0,15-0.1,30.2-0.3,44.9c-0.2,22-0.4,44.7-0.2,66.9L378,703.7z M539,355.4L613.3-0.7l-0.9-0.2l-74.3,356.1l0,0v348.4h0.9V355.4z
	 M694.5,355.3l2-356.1l-0.9,0l-2,356.1v348.4h0.9V355.3z M852.7,355.3L774.5,1.1l-0.9,0.2l78.1,354.1v348.2h0.9V355.3z
	 M1011.6,355.2L866.7,1.1l-0.8,0.3l144.8,354v348.2h0.9V355.2z M1165.2,355.7L942.7-8.4L942-8l222.4,364v347.6h0.9V355.7z
	 M1417,95.3H-38l44.9,0.9H1335L1417,95.3z M1447.7,197.3H-24.1v0.9h1471.8V197.3z M72.4,355.3h-0.9v348.3h0.9V355.3z M-36,309.2
	c13.1-13.3,26.7-27,40.6-40.5c5-4.6,9.9-9.2,14.6-13.7c4.7-4.5,9.6-9.1,14.6-13.7c5-5,10.1-9.9,15-14.6c4.9-4.7,10-9.6,15.1-14.6
	c10-10.9,21-21.9,31.9-31.9c18.3-18.3,36.6-36.3,54.2-53.6c26.3-25.8,53.4-52.5,80.7-80.4c7.5-7.1,14.9-14.4,22-21.5
	c8.5-8.4,17.2-17.1,26-25.2l-0.6-0.7c-8.8,8.1-17.5,16.8-26,25.2c-7.1,7.1-14.5,14.5-22,21.5c-27.3,27.8-54.4,54.5-80.7,80.4
	c-17.7,17.4-35.9,35.3-54.2,53.6c-10.9,10-21.9,21-31.9,31.9c-5,5-10.1,9.9-15,14.6c-4.9,4.7-10,9.6-15,14.6
	c-5,4.6-9.9,9.2-14.6,13.7C13.9,258.8,9,263.5,4,268c-13.9,13.5-27.5,27.2-40.6,40.5c-15.1,15.3-30.7,31.1-46.8,46.4l0.6,0.7
	C-66.7,340.3-51.1,324.5-36,309.2z M-176,297.6c3.4-2.6,6.7-5.2,10.2-7.9c0.5-0.5,1-1.2,1.4-1.9c0.4-0.7,0.9-1.3,1.3-1.8
	c0.4-0.4,1-0.6,1.6-0.8c0.7-0.2,1.5-0.5,2-1c13.7-11.4,27.3-22.3,40.6-32.8c13.2-10.5,26.9-21.4,40.6-32.8
	c14.6-12.8,29.2-24.6,43.3-36c14.1-11.4,28.7-23.2,43.3-36c1.1-0.7,2.1-1.3,3.1-1.8c1.6-0.8,3.1-1.6,4.2-2.8
	c11.3-10.8,23.5-20.1,35.3-29c9.1-6.9,18.5-14.1,27.6-22c0.5-0.5,1-1.2,1.4-1.9c0.4-0.7,0.9-1.3,1.3-1.7c7.3-5.5,14.3-11,21-16.4
	c6.7-5.4,13.7-10.9,20.9-16.4c1.4-1,2.4-2.1,3.3-3.3c0.9-1.1,1.8-2.2,3.1-3.1c3.2-2.3,6.2-4.6,9.1-6.8c2.9-2.2,5.9-4.6,9.1-6.9
	c10.7-10,22.2-19,33.3-27.8c3-2.4,6.1-4.8,9.1-7.2l-0.6-0.7c-3,2.4-6.1,4.8-9.1,7.2c-11.1,8.7-22.6,17.8-33.3,27.8
	c-3.2,2.3-6.2,4.6-9.1,6.8c-2.9,2.2-5.9,4.6-9.1,6.8c-1.4,1-2.4,2.1-3.3,3.3c-0.9,1.1-1.8,2.2-3.1,3.1c-7.3,5.5-14.3,11-21,16.4
	c-6.7,5.4-13.7,10.9-21,16.4c-0.5,0.5-1,1.2-1.4,1.9c-0.4,0.7-0.9,1.3-1.3,1.7c-9.1,7.9-18.5,15-27.5,21.9
	c-11.8,9-24,18.3-35.4,29.1c-1.1,1.1-2.5,1.8-4,2.6c-1,0.6-2.1,1.1-3.3,1.9c-14.6,12.8-29.2,24.6-43.3,36
	c-14.1,11.4-28.7,23.2-43.3,36c-13.7,11.4-27.3,22.3-40.6,32.8c-13.2,10.5-26.9,21.4-40.6,32.8c-0.4,0.4-1,0.6-1.6,0.8
	c-0.7,0.2-1.5,0.5-2,1c-0.5,0.5-1,1.2-1.4,1.9c-0.4,0.7-0.9,1.3-1.3,1.7c-3.4,2.7-6.8,5.3-10.2,7.9c-20.8,16.1-40.4,31.4-60.3,48.6
	l0.6,0.7C-216.5,328.9-196.8,313.7-176,297.6z M1478,355c-124.9-122-242.4-237.9-359.4-354.1l-0.6,0.6
	c117,116.2,234.6,232.1,359.4,354.1L1478,355z M1632.6,355c-54.8-44.5-109.3-89.5-162-133.1c-61.5-50.8-125.1-103.4-190.7-156.2
	c-0.4-0.4-0.9-1.1-1.3-1.8c-0.5-0.7-0.9-1.4-1.5-1.9c-3.2-2.3-6.2-4.6-9.1-6.8c-2.9-2.2-5.9-4.6-9.1-6.8
	c-7.8-6.8-15.6-13.1-23.3-19.2c-7.6-6-15.5-12.3-23.2-19.1c-2.9-3.8-6.7-6.6-10.4-9.2l-0.5,0.7c3.7,2.5,7.5,5.3,10.3,9l0.1,0.1
	c7.8,6.8,15.6,13.1,23.3,19.2c7.6,6,15.5,12.3,23.3,19.2c3.2,2.3,6.2,4.6,9.1,6.8c2.9,2.2,5.9,4.6,9.1,6.8c0.4,0.4,0.9,1.1,1.3,1.8
	c0.5,0.7,0.9,1.4,1.5,1.9c65.6,52.9,129.2,105.4,190.7,156.3c52.7,43.6,107.2,88.6,162,133.1L1632.6,355z"/>
</svg>
