<?xml version="1.0" encoding="utf-8"?>
<!-- Generator: Adobe Illustrator 26.0.3, SVG Export Plug-In . SVG Version: 6.00 Build 0)  -->
<svg version="1.1" id="Layer_1" xmlns="http://www.w3.org/2000/svg" xmlns:xlink="http://www.w3.org/1999/xlink" x="0px" y="0px"
	 viewBox="0 0 1391.6 892.9" style="enable-background:new 0 0 1391.6 892.9;" xml:space="preserve">
<style type="text/css">
	.st0{fill:url(#SVGID_1_);}
</style>
<g id="Layer_1_00000102545906944726231080000002439309275522888363_">
	
		<linearGradient id="SVGID_1_" gradientUnits="userSpaceOnUse" x1="683.6205" y1="880.4" x2="683.6205" y2="10.8" gradientTransform="matrix(1 0 0 -1 0 892)">
		<stop  offset="0" style="stop-color:#666666;stop-opacity:0"/>
		<stop  offset="0.2588" style="stop-color:#636363"/>
		<stop  offset="0.3854" style="stop-color:#5D5D5D;stop-opacity:0.8292"/>
		<stop  offset="0.5517" style="stop-color:#4D4D4D;stop-opacity:0.6048"/>
		<stop  offset="0.7401" style="stop-color:#313131;stop-opacity:0.3507"/>
		<stop  offset="0.9433" style="stop-color:#0C0C0C;stop-opacity:7.645279e-02"/>
		<stop  offset="1" style="stop-color:#000000;stop-opacity:0"/>
	</linearGradient>
	<path class="st0" d="M1114,206.2h143.2l133.2,162.6l1.2-2.8l-290-353.9l-1.2,2.8l55.4,67.7h-117.4l-42.3-69.2l-0.6-1l-1.4,2.5
		l41.4,67.8H923.8l-28.9-70l-1.6,2l28,68h-117L790.1,13l-1.9,1.1l14.1,68.4H685.5v-69h-2v69h-115l10.2-50.1l3.7-18.4l-1.9-1.1
		l-14.1,69.6H447.8l20.5-49.7l7.6-18.4l-1.6-2l-7.6,18.4l-21.3,51.6H332.2l41.5-67.8l-1.4-2.5l-43,70.2h-114l55.4-67.6l-0.6-1.4
		v-1.7h-0.3L-24.4,370.9l3.2,0.3l135.2-165h139.6L147.1,379.9H0v3.4h145l-0.1,0.2l-0.3,0.5v497.1h2V385.5l1.3-2.2h173.4l-0.2,0.5
		l-0.2,0.5v496.9h2V385.3l0.8-2h181.6l-0.2,1.2v496.6h2V385l0.3-1.7h176v497.8h2V383.3h178.7l0.4,1.7v496h2V384.5l-0.2-1.2h179.1
		l0.8,2v495.8h2V384.2l-0.4-0.9h171.4l1.3,2.2v495.6h2V384l-0.4-0.7H1391v-3.4h-170.9L1114,206.2z M1158.7,86l95.7,116.8H1112
		L1040.6,86H1158.7z M1037.7,86l71.3,116.8H973.4L925.3,86H1037.7z M922.8,86L971,202.7H829.2L805.1,86H922.8z M803,86l24,116.8
		H685.5V86H803z M683.5,86v116.8H544.1L567.8,86H683.5z M446.4,86h119.3L542,202.7H398.2L446.4,86z M330.1,86h113.8l-48.1,116.8
		H258.5L330.1,86z M116.8,202.7L212.5,86h114.7l-71.5,116.8H116.8V202.7z M150,379.9l106.4-173.7h137.9l-71.6,173.7H150z
		 M325.2,379.9l71.6-173.7h144.5l-35.2,173.7H325.2z M508.2,379.9l35.2-173.7h140.1v173.7H508.2z M685.5,379.9V206.2h142.3
		l35.8,173.7H685.5z M865.6,379.9l-35.8-173.7h142.5l71.6,173.7H865.6z M1046.5,379.9l-71.6-173.7h136.3l106.1,173.7H1046.5z"/>
</g>
</svg>
