<svg width="153" height="174" viewBox="0 0 153 174" fill="none" xmlns="http://www.w3.org/2000/svg">
    <path d="M17.0408 44.5342C15.9764 40.5236 14.6756 36.6782 13.9593 32.7283C12.5132 24.8589 14.7094 17.5494 18.2504 10.6144C19.5715 8.02719 21.2912 5.63904 22.9232 3.21379C23.4105 2.52486 24.0197 1.93047 24.7207 1.45978C26.0992 0.50182 27.3697 0.933577 27.8596 2.55941C28.3495 4.18524 28.6975 5.82793 29.0455 7.47737C30.4579 14.1224 33.7555 19.8229 37.8709 25.1153C38.4351 25.8371 39.0602 26.4881 37.9554 27.3584C36.9721 28.1274 36.3775 28.2286 35.5057 27.1121C30.8397 21.135 27.2277 14.6756 25.7715 7.15018C25.6468 6.66951 25.4911 6.19742 25.3052 5.73686C17.8956 11.5622 14.1553 31.6085 19.0072 39.4678C19.3561 39.1186 19.6865 38.7516 19.9972 38.3682C22.5617 34.8095 25.0653 31.2105 27.694 27.6923C28.4711 26.65 28.4407 25.8776 27.7346 24.8555C26.4743 23.024 25.3323 21.1114 24.1396 19.2326L23.5483 19.3001C23.3591 20.3491 22.9874 21.4049 23.0178 22.4505C23.0786 24.5823 23.4131 26.704 23.4976 28.8392C23.4976 29.2338 22.8658 29.9961 22.5414 29.986C21.8893 29.9692 20.7574 29.6487 20.6729 29.2608C19.3687 23.368 19.835 17.7046 23.4638 12.338C24.7782 14.3956 26.079 16.3857 27.3528 18.4096C28.7313 20.5953 30.022 22.8452 31.4884 24.9736C32.2419 26.0665 32.0797 26.8524 31.36 27.8374C27.6771 32.8768 23.9267 37.8757 20.4398 43.0466C19.1491 44.9592 18.4429 47.2799 17.5847 49.4555C15.946 53.6179 14.3918 57.8107 12.8004 61.9933L13.4119 62.307C13.716 61.8449 14.0235 61.3861 14.3208 60.9207C18.4497 54.4207 22.3421 47.7656 26.7784 41.4714C30.6842 35.9429 35.7862 31.4432 41.1888 27.3415C42.3072 26.4915 43.4459 25.655 44.5034 24.7341C44.8007 24.4744 44.8413 23.9212 45.0069 23.5029C44.5169 23.422 43.9459 23.1353 43.5574 23.2972C42.571 23.7116 41.6338 24.2343 40.7631 24.8555C39.6278 25.6617 39.0737 25.0073 38.4453 24.1809C37.6918 23.2129 38.2831 22.7609 39.0231 22.3426C40.7361 21.3779 42.4356 20.3828 44.2061 19.5261C44.6386 19.3169 45.5373 19.381 45.8313 19.6913C47.2098 21.1485 48.4498 22.7271 49.8858 24.4508C48.1964 25.773 46.6861 27.0143 45.115 28.1612C40.0164 31.9087 35.1442 35.9631 31.2012 40.8912C27.5431 45.5291 24.1466 50.3669 21.0277 55.382C15.2892 64.4735 10.4624 74.1075 6.61724 84.1444C5.55292 86.9171 4.8569 89.8281 3.99193 92.6783C3.65406 93.842 3.99193 94.348 5.27586 94.6077C12.3003 96.0413 19.1863 97.9977 25.6059 101.226C27.9109 102.4 30.0259 103.913 31.8803 105.715C36.0295 109.729 40.4151 113.554 43.2094 118.789C45.6353 123.34 46.4834 128.305 46.6929 133.267C46.8787 137.611 48.3823 140.485 52.4368 141.979C52.9663 142.216 53.4819 142.483 53.9809 142.779C54.4066 141.561 54.812 140.485 55.1668 139.389C57.9476 130.835 60.6945 122.27 63.5158 113.73C63.8976 112.576 63.8537 111.665 63.0597 110.775C62.9562 110.641 62.8614 110.5 62.7758 110.353C58.9882 104.484 58.9882 104.491 52.1293 102.848C47.8045 101.813 43.4695 100.824 39.1751 99.6674C38.2951 99.4071 37.5473 98.8222 37.0836 98.0314C34.2184 92.2364 31.4749 86.3808 28.6908 80.5419C28.3157 79.7594 27.9238 79.0645 29.0928 78.4742C30.1943 77.921 30.7822 78.0458 31.3059 79.2096C33.4582 83.8509 35.8673 88.3844 37.8236 93.1033C38.9724 95.876 40.5773 97.3028 43.5675 97.8897C48.6357 98.8814 53.6092 100.389 58.6334 101.637C59.3794 101.8 60.0836 102.115 60.7022 102.562C61.3208 103.009 61.8404 103.578 62.2285 104.235C63.4989 106.289 64.8098 108.329 66.2391 110.276C67.05 111.372 67.0533 112.387 66.6546 113.581C64.0575 121.366 61.4761 129.157 58.9105 136.954C57.7921 140.37 56.7954 143.828 55.6973 147.255C55.501 147.807 55.4357 148.398 55.5067 148.979C55.5776 149.561 55.7828 150.119 56.1061 150.608C59.0749 155.58 61.9931 160.583 64.8605 165.618C65.5363 166.809 66.2661 167.018 67.4622 166.532C68.79 165.992 70.1652 165.571 71.9053 164.967C69.9726 163.507 68.4522 162.167 66.7493 161.118C64.4922 159.729 64.5835 157.324 63.9111 155.249C63.8469 155.057 64.347 154.467 64.6612 154.403C68.2799 153.627 71.9154 152.918 75.6929 152.163C75.8341 152.628 75.9358 153.104 75.997 153.586C76.0679 157.354 76.0747 161.122 76.1794 164.886C76.2166 166.111 75.7672 166.741 74.5982 167.065C73.1887 167.462 71.8005 167.93 70.4389 168.468C70.0469 168.617 69.7631 169.065 69.4455 169.376C69.8071 169.676 70.1618 170.232 70.5301 170.239C74.5283 170.304 78.5254 170.304 82.5214 170.239C82.9167 170.239 83.3019 169.615 83.6904 169.278C83.3864 169.008 83.1262 168.624 82.7714 168.492C81.2442 167.919 79.6562 167.48 78.1594 166.856C77.6526 166.64 77.0038 165.976 76.9937 165.507C76.9025 161.193 76.9396 156.878 76.9396 152.267C78.2101 152.426 79.021 152.487 79.815 152.638C82.518 153.154 85.221 153.731 87.924 154.224C89.0661 154.433 89.3533 154.878 89.0863 156.069C88.5018 158.643 87.4544 160.764 85.0318 162.113C83.7817 162.805 82.7207 163.837 81.1665 165.031C83.3424 165.726 85.069 166.33 86.8327 166.789C87.13 166.863 87.7416 166.391 87.9612 166.023C91.144 160.653 94.3167 155.28 97.388 149.832C97.7259 149.215 97.665 148.176 97.4353 147.444C94.2457 137.372 91.2285 127.232 87.6368 117.295C86.1874 113.268 86.5793 110.37 88.9884 106.839C91.2859 103.395 93.9889 101.405 97.9725 100.581C102.49 99.6572 106.933 98.3755 111.44 97.3939C112.069 97.2943 112.662 97.0321 113.158 96.6332C113.654 96.2344 114.037 95.7128 114.268 95.1204C116.633 89.9663 119.11 84.846 121.56 79.7223C121.996 78.8149 122.181 77.6073 123.807 78.4068C125.432 79.2062 124.513 80.1338 124.104 81.004C121.485 86.546 118.799 92.0543 116.221 97.6098C115.61 98.9287 114.741 99.5088 113.349 99.8394C107.436 101.24 101.544 102.729 95.6716 104.305C94.6337 104.656 93.725 105.309 93.0632 106.181C91.8376 107.793 90.7191 109.483 89.7148 111.24C89.3732 111.793 89.2526 112.455 89.3769 113.092C92.455 122.733 95.5972 132.353 98.7294 141.973C98.8698 142.264 99.0324 142.543 99.2159 142.809C101.284 141.548 103.365 140.37 105.318 139.014C105.734 138.728 105.767 137.8 105.859 137.149C106.335 133.756 106.771 130.356 107.21 126.959C108.055 120.658 111.309 115.622 115.606 111.153C117.204 109.493 118.924 107.948 120.512 106.279C125.128 101.428 131.172 99.2795 137.332 97.3872C140.711 96.3482 144.15 95.4274 147.613 94.6887C149.161 94.3514 149.492 93.7071 149.043 92.4017C147.532 87.9965 146.137 83.544 144.441 79.2096C141.15 70.8072 136.67 62.9884 132.081 55.2606C125.185 43.6538 116.478 33.6998 105.25 26.0462C103.129 24.5992 103.186 24.5149 104.794 22.4944C107.585 18.9931 107.588 18.9897 111.552 21.1451C112.244 21.5196 112.93 21.9142 113.579 22.3358C114.326 22.8081 115.228 23.1454 114.387 24.3597C113.664 25.4189 113.069 25.7089 111.974 24.8792C111.201 24.3128 110.359 23.848 109.467 23.4962C109.035 23.314 108.474 23.4355 107.974 23.4186C108.193 23.9111 108.288 24.5553 108.649 24.8623C110.859 26.6905 113.15 28.4243 115.383 30.2221C122.725 36.1318 128.108 43.6673 133.075 51.5468C134.257 53.4223 135.439 55.2999 136.619 57.1799L137.082 56.9573C135.957 54.2959 134.899 51.6075 133.703 48.9867C132.71 46.8414 132.625 46.8818 134.247 45.1076C132.027 42.0718 129.77 38.9989 127.54 35.9092C125.513 33.1264 123.519 30.3469 121.597 27.5068C121.259 27.011 121.066 26.0226 121.333 25.5808C123.864 21.3914 126.503 17.2728 129.105 13.1408C129.328 12.888 129.575 12.6565 129.841 12.4493C130.574 14.2236 131.105 15.9202 131.939 17.4516C134.038 21.3172 132.581 25.2671 132.328 29.1765C132.308 29.4902 131.233 29.9759 130.682 29.9321C130.28 29.9017 129.608 29.1326 129.618 28.7042C129.659 26.7411 129.997 24.7813 130.034 22.8182C130.054 21.614 129.723 20.3997 129.551 19.1888L128.875 19.1044C127.466 21.3745 126.04 23.6345 124.661 25.9248C124.607 26.0772 124.589 26.24 124.607 26.4007C124.625 26.5614 124.679 26.7159 124.766 26.8524C127.763 31.1126 130.787 35.356 133.848 39.6702C139.221 33.1466 135.49 12.5438 127.777 5.56483C127.486 6.5464 127.165 7.40654 126.979 8.29704C125.486 15.4041 121.911 21.4521 117.519 27.1121C116.843 27.9925 116.316 28.2894 115.346 27.4866C114.461 26.758 114.366 26.2082 115.116 25.2873C120.273 19.0557 123.685 11.5726 125.006 3.59832C125.158 2.69433 125.942 1.41593 126.668 1.23716C127.395 1.05838 128.757 1.72963 129.331 2.44135C138.883 14.1797 142.954 28.8965 135.845 43.6099C135.288 44.7602 135.271 45.6338 135.845 46.7469C138.572 51.8976 140.4 57.3857 141.69 63.0558C141.815 63.6124 141.454 64.2701 141.488 64.8705C141.517 65.5015 141.664 66.1214 141.92 66.6988C145.481 74.4569 149.387 82.0902 151.489 90.4352C151.925 92.1757 152.165 93.9668 152.472 95.7343C152.641 96.6653 152.205 96.9014 151.3 97.0836C146.36 98.1899 141.461 99.4009 136.561 100.581C135.842 100.757 135.176 100.976 135.494 102.069C135.619 102.491 135.21 103.125 134.936 103.6C129.307 113.382 121.303 120.83 111.853 126.831C111.383 127.131 110.721 127.138 109.825 127.36C109.416 130.825 108.872 134.444 108.612 138.057C108.481 139.878 107.916 141.072 106.247 141.898C104.436 142.789 102.777 143.986 101.017 144.981C100.219 145.433 99.7971 145.899 100.199 146.85C100.969 148.672 100.496 150.243 99.4828 151.91C96.0703 157.533 92.7996 163.243 89.4884 168.93C89.039 169.703 88.6505 170.239 87.5321 170.084C87.0354 170.017 86.1806 170.738 85.8968 171.305C85.2785 172.607 84.4405 173.073 82.9978 173.042C78.6628 172.958 74.3245 172.951 69.9895 173.042C68.5738 173.076 67.7528 172.56 67.2527 171.335C66.8641 170.374 66.4114 169.649 65.1241 170.037C64.8267 170.131 64.1746 169.753 63.9787 169.423C60.2181 163.088 56.444 156.76 52.8287 150.341C52.3658 149.518 52.6361 148.152 52.8794 147.11C53.1227 146.068 53.0044 145.471 52.0144 144.928C50.0379 143.851 48.1626 142.59 46.1894 141.511C45.0744 140.903 44.6116 140.08 44.5001 138.839C44.2196 135.705 43.8581 132.579 43.4425 129.459C43.3749 128.953 42.983 128.254 42.5573 128.065C37.1918 125.704 32.4581 122.382 28.1468 118.479C22.5921 113.45 17.9496 107.709 15.0236 100.713C14.8344 100.261 14.1654 99.8428 13.6485 99.7247C9.65475 98.8005 5.65429 97.8897 1.62679 97.1308C0.461117 96.9115 0.376642 96.3381 0.57599 95.5083C1.47474 91.7979 2.13698 88.0032 3.41754 84.4244C5.10693 79.6717 7.30313 75.0876 9.28985 70.4395C9.62773 69.6806 10.2156 68.9891 9.1547 68.2504C8.90129 68.075 8.95535 67.3059 9.03306 66.8337C10.2494 59.3926 12.7328 52.3631 16.0609 45.6203C16.3042 45.1481 16.8178 44.7804 17.0408 44.5342ZM42.1721 124.831C42.3174 118.482 25.5958 101.411 18.7166 101.937C24.1902 111.972 32.0324 119.349 42.1721 124.831ZM111.163 123.984C119.799 118.226 127.006 111.551 132.216 102.632C126.915 102.268 111.008 118.614 111.163 123.984ZM70.7734 160.596C70.9254 158.737 70.5808 157.037 72.8006 157.246C72.9121 157.246 73.2771 156.531 73.1757 156.312C73.0794 156.142 72.9433 155.999 72.779 155.894C72.6148 155.788 72.4274 155.725 72.233 155.708C70.8443 155.907 69.4658 156.194 68.1042 156.524C67.0061 156.787 67.1277 157.593 67.7021 158.17C68.5164 158.976 69.4996 159.611 70.7734 160.596ZM82.4065 160.572C83.6127 159.627 84.5723 159.034 85.319 158.241C85.9948 157.519 86.0758 156.7 84.775 156.443C83.5688 156.204 82.366 155.897 81.1496 155.769C80.7408 155.725 80.2813 156.136 79.8488 156.339C80.1867 156.676 80.4772 157.29 80.832 157.324C81.8456 157.421 82.2004 157.873 82.1598 158.835C82.2005 159.419 82.2829 159.999 82.4065 160.572Z"
          fill="white"/>
    <path d="M33.7082 44.1497C35.1408 46.0993 36.5092 47.9309 37.8405 49.7895C39.7731 52.4879 41.6382 55.2303 43.6182 57.8849C44.4696 59.0284 44.5372 59.6962 43.1654 60.499C39.1852 62.8332 35.2658 65.2652 31.3667 67.7309C30.3734 68.3583 29.6773 68.1897 28.7989 67.5522C26.0519 65.5755 26.035 65.6093 27.8967 62.7759C28.9487 61.177 29.9916 59.5748 31.0255 57.9692C31.5762 57.1158 32.0391 56.4041 33.2757 57.1833C34.4549 57.9287 34.2184 58.5865 33.59 59.504C32.5763 60.978 31.6573 62.5094 30.6977 64.0138L31.0153 64.4085L40.4117 58.6506L33.671 49.1688C29.2786 55.6654 25.0619 61.9022 20.727 68.3212C22.7542 69.6469 24.5281 70.9219 26.4269 71.9743C26.8865 72.2307 27.8258 71.8933 28.4204 71.5864C33.7825 68.8508 39.1379 66.1051 44.4392 63.2582C45.7231 62.5667 46.4158 62.7489 47.595 63.6529C52.1462 67.1407 56.7852 70.5374 61.5865 73.6642C63.8502 75.1383 64.8166 76.6089 64.3469 79.3681C63.5597 84.0162 63.1306 88.7285 62.5765 93.417C62.4616 94.4054 62.0629 94.7089 61.0222 94.6044C56.0149 94.0883 55.9811 94.122 55.6331 89.1872C55.4101 86.0165 54.0045 83.4867 51.6191 81.4898C48.3417 78.7441 44.5068 77.4421 40.2461 77.4421C37.6276 77.4421 37.435 77.8064 38.5568 80.1237C40.7124 84.647 44.2534 87.4129 49.1154 88.5227C50.0955 88.7791 51.0925 88.9662 52.0989 89.0826C53.2477 89.1737 53.4504 89.7572 53.4031 90.7692C53.3355 91.8418 52.805 92.0374 51.8556 91.997C43.5438 91.6327 36.2288 85.4228 34.4279 77.2566C34.1441 75.968 34.4617 75.4014 35.7321 75.1349C43.0471 73.5866 49.477 75.2293 54.8256 80.5116C57.1028 82.7581 58.2786 85.605 58.5084 88.8161C58.4911 89.1552 58.516 89.4951 58.5828 89.8281C58.7652 90.3577 59.0423 90.8569 59.2788 91.3696C59.5626 90.894 60.0153 90.4487 60.0998 89.9394C60.458 87.8346 60.7283 85.7163 60.9783 83.5946C61.2207 81.9832 61.3494 80.3567 61.3635 78.7272C61.3635 77.975 60.9344 76.9564 60.3498 76.5313C55.766 73.1785 51.1235 69.9055 46.4225 66.7123C45.909 66.375 44.794 66.4694 44.1723 66.7865C38.9532 69.4242 33.7634 72.1227 28.6029 74.8819C27.2514 75.6071 26.2073 75.6274 24.92 74.6896C22.6056 73.0031 20.1593 71.4886 17.7503 69.9302C17.0441 69.4748 16.6386 69.0599 17.2266 68.1931C22.5177 60.3675 27.7965 52.5363 33.0629 44.6995C33.2596 44.4957 33.4757 44.3115 33.7082 44.1497Z"
          fill="white"/>
    <path d="M119.215 49.3881L112.609 58.6304L122.242 64.594L122.58 64.2972C121.323 62.2902 120.063 60.2866 118.816 58.3066C120.505 56.2827 120.918 56.3029 122.273 58.3706C123.567 60.3473 124.807 62.361 126.138 64.3106C126.76 65.2248 126.814 65.8151 125.773 66.4863C122.394 68.6383 123.584 68.7429 120.093 66.6381C116.769 64.6311 113.461 62.5904 110.153 60.5665C109.636 60.2528 109.139 59.8919 108.464 59.4264C112.126 54.3027 115.701 49.3071 119.512 43.9675L136.43 69.1207C134.355 70.5138 132.226 71.6201 130.5 73.1684C127.591 75.7792 124.999 75.4857 121.816 73.5259C117.708 70.9928 113.268 69.0026 108.977 66.7325C107.963 66.1928 107.22 66.2063 106.234 66.9248C101.817 70.1326 97.344 73.2595 92.8435 76.3492C91.8805 77.0238 91.492 77.7187 91.6372 78.8655C92.1035 82.5996 92.4921 86.3471 92.9685 90.0845C93.0293 90.5398 93.4584 90.9513 93.7186 91.3865C93.9821 90.9041 94.4551 90.4285 94.472 89.9394C94.508 88.0216 94.9293 86.1305 95.7111 84.3784C96.4929 82.6262 97.6192 81.0486 99.0233 79.7392C103.906 75.0168 113.376 73.1009 118.826 75.7792C117.769 84.5796 110.227 91.518 101.223 91.9869C100.382 92.0307 99.7835 91.9059 99.7362 90.8839C99.699 89.9664 99.7531 89.339 100.939 89.0961C103.132 88.6475 105.355 88.155 107.416 87.3151C111.035 85.8377 113.349 82.9773 114.89 79.439C115.427 78.1977 115.272 77.5231 113.775 77.4725C108.105 77.2802 103.25 79.0275 99.547 83.4664C97.5434 85.8715 97.2866 88.8128 97.2561 91.7541C97.2561 93.3968 96.7324 94.0647 94.9822 94.2435C90.6236 94.6921 90.6236 94.7967 90.1168 90.4589C89.61 86.1211 89.1437 81.7462 88.6166 77.3949C88.4781 76.248 88.8768 75.5464 89.833 74.8887C94.7457 71.5156 99.8409 68.3314 104.392 64.5097C106.676 62.5904 108.109 62.9209 110.268 64.1218C114.998 66.7427 119.843 69.1241 124.607 71.6741C125.746 72.2846 126.635 72.3217 127.682 71.5189C128.881 70.5947 130.243 69.8763 131.432 68.9419C131.753 68.6889 131.987 67.7883 131.791 67.4949C127.895 61.6425 123.935 55.8374 119.965 50.0256C119.737 49.788 119.486 49.5743 119.215 49.3881Z"
          fill="white"/>
    <path d="M75.5307 67.4645C72.4323 65.417 69.5806 63.5416 66.7459 61.6492C63.3671 59.4028 60.0457 57.0989 56.6433 54.9031C55.5047 54.1711 55.1296 53.4729 55.6871 52.1506C56.7548 49.6141 57.7144 47.0269 58.6267 44.433C59.022 43.3165 59.62 42.8173 60.8567 42.9185C63.5597 43.1411 66.2627 43.2726 68.9454 43.3975C70.0739 43.448 70.5672 43.954 70.5233 45.084C70.4152 47.9478 70.3071 50.8183 70.2632 53.6786C70.2632 54.7749 69.6921 54.9705 68.7562 54.9435C67.8203 54.9166 67.2898 54.5725 67.3236 53.5437C67.3811 51.6919 67.3574 49.8333 67.4385 47.9815C67.4926 46.8043 67.1006 46.2039 65.837 46.1904C60.3532 46.1297 61.7824 44.9828 59.7552 49.9952C58.4983 53.1187 58.5625 52.525 61.0492 54.2352C64.2929 56.4648 67.5872 58.6202 70.8477 60.8094C71.3038 61.1129 71.7802 61.3895 72.4898 61.8213C72.5936 61.2737 72.6669 60.7208 72.7094 60.1651C72.7432 54.7142 72.7263 49.2633 72.8006 43.8123C72.8209 42.4327 72.5033 41.7885 70.949 41.7885C61.4885 41.7885 52.8185 38.8505 44.5473 34.4824C43.5168 33.9359 43.5337 33.3861 43.956 32.4585C44.4527 31.3555 45.0778 31.2712 46.0813 31.7839C50.896 34.2361 55.7277 36.7525 61.1168 37.6261C65.3268 38.3007 69.5975 38.638 73.8548 38.9483C75.3617 39.0563 75.7604 39.5589 75.7537 40.9722C75.7131 49.4049 75.7537 57.8377 75.7334 66.2704C75.6907 66.6722 75.623 67.071 75.5307 67.4645Z"
          fill="white"/>
    <path d="M77.4667 67.2857C77.4667 64.4354 77.4667 61.7505 77.4667 59.0655C77.4363 53.1086 77.4295 47.1483 77.3417 41.1881C77.3214 39.6736 77.6795 38.9787 79.4027 38.9855C89.1066 39.0293 98.2461 36.766 106.713 31.9627C107.727 31.3859 108.477 31.2004 109.133 32.5294C109.788 33.8584 109.031 34.1619 108.099 34.6308C102.605 37.3866 97.0467 40.0041 90.8939 40.9182C87.853 41.3702 84.7479 41.5692 81.6665 41.8256C80.8252 41.8964 80.2542 42.0482 80.2609 43.0467C80.3082 49.0069 80.3352 54.9638 80.3826 60.924C80.4331 61.1871 80.5183 61.4423 80.636 61.683C81.0496 61.5018 81.4523 61.2968 81.8422 61.0691C85.6332 58.5426 89.4039 55.9791 93.2151 53.483C94.07 52.9231 94.347 52.3901 93.9146 51.4153C93.303 50.029 92.8536 48.5684 92.2252 47.1854C92.0258 46.7334 91.5258 46.1094 91.1473 46.0959C89.575 46.0457 88.0013 46.1326 86.4441 46.3557C86.1062 46.4029 85.6771 47.2563 85.6602 47.7521C85.596 49.6006 85.6602 51.4625 85.7278 53.311C85.7548 54.2925 85.525 54.9267 84.3526 54.9368C83.268 54.9368 82.8558 54.5253 82.8355 53.4459C82.7815 50.6935 82.67 47.9444 82.5315 45.1919C82.474 43.9979 82.9268 43.4514 84.16 43.4008C86.9137 43.2929 89.6674 43.1242 92.4177 42.932C93.4314 42.8611 93.9754 43.2389 94.32 44.1766C95.3336 46.9763 96.4013 49.7591 97.4758 52.5385C97.8136 53.3886 97.7157 54.0025 96.898 54.5455C90.6225 58.7012 84.3594 62.8816 78.1086 67.0867C77.9028 67.1769 77.6875 67.2436 77.4667 67.2857Z"
          fill="white"/>
    <path d="M65.168 153.31L62.742 151.92C64.0496 149.684 65.2457 147.535 66.5735 145.467C66.8303 145.066 67.6108 144.82 68.1548 144.816C73.6735 144.769 79.1921 144.769 84.7108 144.816C85.2886 144.816 86.1096 145.154 86.4002 145.592C87.7821 147.764 89.0187 150.031 90.3939 152.419L88.0524 153.826C87.0084 152.082 86.1197 150.392 85.0115 148.857C84.5689 148.24 83.66 147.609 82.9538 147.589C78.6222 147.471 74.2839 147.548 69.9489 147.501C69.5049 147.46 69.0593 147.561 68.6758 147.788C68.2922 148.015 67.9905 148.357 67.8136 148.766C67.0229 150.257 66.1242 151.677 65.168 153.31Z"
          fill="white"/>
</svg>
