<svg width="43" height="36" viewBox="0 0 43 36" fill="none" xmlns="http://www.w3.org/2000/svg">
    <path d="M40.932 0C42.3072 0 43 0.71256 43 2.05909C42.9705 2.87042 42.8893 3.67897 42.757 4.4797C41.6472 11.7276 40.5321 18.9667 39.4119 26.1971C39.0604 28.4657 38.6985 30.7344 38.3469 33.0083C38.2612 33.68 38.0337 34.3251 37.6799 34.8997C37.4822 35.2574 37.1867 35.5496 36.829 35.7411C36.4713 35.9325 36.0666 36.0152 35.6636 35.979C35.0377 35.937 34.4211 35.8029 33.8334 35.5808C32.9812 35.246 32.1638 34.8265 31.3931 34.3286C28.4978 32.4058 25.6232 30.441 22.7589 28.4657C21.7663 27.7794 20.8305 27.0144 19.874 26.2809C19.7809 26.2128 19.6982 26.1394 19.6103 26.0608C18.5763 25.102 18.5194 23.9336 19.4914 22.9172C20.1118 22.2623 20.7994 21.6807 21.4509 21.052C24.7253 17.8769 27.9997 14.6983 31.2741 11.5162C31.6373 11.1053 31.9626 10.6616 32.2461 10.1907C32.3459 10.0296 32.4176 9.85237 32.4581 9.66672C32.5822 9.14277 32.3185 8.87556 31.8015 8.98559C31.4829 9.04429 31.1745 9.15021 30.8864 9.29996C30.1212 9.72959 29.3353 10.154 28.6219 10.6465C23.7257 13.9683 18.8038 17.2901 13.949 20.68C13.2217 21.2093 12.39 21.5728 11.5109 21.7456C10.6318 21.9183 9.72627 21.8962 8.85644 21.6807C8.18815 21.5397 7.52727 21.3649 6.87628 21.1567C4.97367 20.5437 3.07106 19.9045 1.18913 19.281C0.801067 19.1723 0.463855 18.9271 0.237827 18.5894C0.102413 18.4116 0.0289669 18.1932 0.0289669 17.9686C0.0289669 17.7439 0.102413 17.5256 0.237827 17.3477C0.443282 17.0478 0.702915 16.79 1.00301 16.588C1.5075 16.2542 2.03839 15.9633 2.59024 15.7182C7.84654 13.5142 13.1097 11.3136 18.3798 9.11658C25.2113 6.25586 32.0376 3.39165 38.8587 0.523941C39.5077 0.208868 40.213 0.0306191 40.932 0Z" fill="white" />
</svg>
    