<svg width="28" height="29" viewBox="0 0 28 29" fill="none" xmlns="http://www.w3.org/2000/svg">
<rect y="0.5" width="28" height="28" rx="14" fill="#16B166"/>
<path d="M21 11.4529C21 11.6773 20.9157 11.8681 20.7471 12.0253L14.2077 18.1195L12.9794 19.2643C12.8108 19.4214 12.606 19.5 12.3652 19.5C12.1243 19.5 11.9196 19.4214 11.751 19.2643L10.5226 18.1195L7.2529 15.0724C7.0843 14.9153 7 14.7245 7 14.5C7 14.2755 7.0843 14.0847 7.2529 13.9276L8.48129 12.7828C8.64989 12.6257 8.85462 12.5471 9.09548 12.5471C9.33634 12.5471 9.54108 12.6257 9.70968 12.7828L12.3652 15.266L18.2903 9.73569C18.4589 9.57856 18.6637 9.5 18.9045 9.5C19.1454 9.5 19.3501 9.57856 19.5187 9.73569L20.7471 10.8805C20.9157 11.0376 21 11.2284 21 11.4529Z" fill="white"/>
</svg>
