<?xml version="1.0" encoding="utf-8"?>
<!-- Generator: Adobe Illustrator 26.0.3, SVG Export Plug-In . SVG Version: 6.00 Build 0)  -->
<svg version="1.1" id="Layer_1" xmlns="http://www.w3.org/2000/svg" xmlns:xlink="http://www.w3.org/1999/xlink" x="0px" y="0px"
	 viewBox="0 0 74 74" style="enable-background:new 0 0 74 74;" xml:space="preserve">
<style type="text/css">
	.st0{fill:#585353;}
</style>
<path class="st0" d="M65.5,60.6c-0.7,0.9-1.5,1.8-2.3,2.5v0c-4.2,4.3-9.2,7.4-14.9,9.1c-13.8,4-26.2,1.1-36.9-8.6
	c-0.2-0.2-0.3-0.3-0.5-0.5c-4.5-4.5-7.8-9.7-9.4-15.8c-3.6-13.6-0.6-25.6,8.8-35.9c0.1-0.2,0.3-0.3,0.5-0.5c3.4-3.5,7.4-6.3,12-8
	c14.7-5.5,27.9-3.1,39.6,7.3c0.8,0.7,0.7,0.7,0,1.4c-3.1,3.1-6.2,6.2-9.2,9.3c-0.3,0.4-0.5,0.5-1,0c-4.1-3.9-9.6-6.1-15.3-6.1
	S25.8,17,21.7,21c-0.1,0.1-0.3,0.2-0.4,0.3c-2.1,2.2-3.9,4.7-4.9,7.5c-3.1,8.8-1.6,16.6,4.6,23.5c0.1,0.1,0.2,0.2,0.3,0.3
	c2.5,2.3,5.2,4.2,8.4,5.2c8.5,2.7,16,1.1,22.6-4.9c0.1-0.1,0.3-0.2,0.4-0.3v0c2-2.1,3.7-4.5,4.8-7.2c0-0.1,0.1-0.2,0.1-0.3
	c0.3-0.8,0.3-0.8-0.5-0.8c-3.9,0-7.9,0-11.8,0c-0.8,0-0.9-0.2-0.9-0.9c0-4.4,0-8.8,0-13.2c0-0.6,0.2-0.7,0.7-0.7
	c9.2,0,18.3,0,27.4,0c0.7,0,0.8,0.3,0.9,0.8C75.3,41.7,72.6,51.8,65.5,60.6z"/>
</svg>
