<svg width="75" height="74" viewBox="0 0 75 74" fill="none" xmlns="http://www.w3.org/2000/svg">
    <path d="M11.3264 10.9399C14.7494 7.40732 18.7274 4.62349 23.3113 2.89342C37.958 -2.65266 51.1687 -0.225736 62.9434 10.1742C63.7004 10.8413 63.6804 10.8644 62.9434 11.5961C59.8596 14.6773 56.7759 17.7646 53.6922 20.8581C53.3453 21.2078 53.1572 21.3064 52.7347 20.9074C48.6086 16.9982 43.1363 14.8236 37.4502 14.8337C31.7641 14.8437 26.2995 17.0376 22.1873 20.9613C22.0578 21.083 21.9159 21.1909 21.7787 21.3049C21.1943 20.7333 20.6053 20.1679 20.0241 19.5918C17.1254 16.7098 14.2261 13.8259 11.3264 10.9399Z"
          fill="#E94335"/>
    <path d="M11.3264 10.9399C14.2271 13.8239 17.1279 16.7079 20.0286 19.5918C20.6099 20.168 21.1989 20.7334 21.7833 21.305C19.6925 23.5234 17.9101 25.9652 16.8755 28.8538C13.7363 37.5971 15.2782 45.4381 21.5011 52.3769C21.6029 52.4893 21.6938 52.6126 21.7894 52.7312C21.4117 53.1133 21.0355 53.5015 20.6562 53.8759L11.3927 63.1702C6.87809 58.7133 3.64326 53.4553 2.00426 47.3423C-1.62837 33.7852 1.36901 21.7933 10.8237 11.4144C10.9733 11.2388 11.1568 11.0955 11.3264 10.9399Z"
          fill="#FABB06"/>
    <path d="M11.3881 63.164L20.6516 53.8758C21.0309 53.4953 21.4071 53.1133 21.7848 52.7312C24.2333 55.0421 26.9701 56.9262 30.1972 57.9522C38.6559 60.6421 46.1972 59.0147 52.821 53.0701C52.9521 52.9515 53.0939 52.8437 53.2296 52.7312C53.6058 53.1148 53.9774 53.5015 54.3551 53.882L63.6217 63.1702C59.4109 67.4376 54.4538 70.5649 48.715 72.2349C34.866 76.2712 22.5542 73.3719 11.8645 63.6724C11.6933 63.5122 11.5453 63.3319 11.3881 63.164Z"
          fill="#34A853"/>
    <path d="M63.6217 63.164L54.3551 53.8758C53.9773 53.4953 53.6057 53.1056 53.2295 52.725C55.2339 50.5929 56.9038 48.2481 58.0093 45.5259C58.0478 45.4304 58.091 45.338 58.1296 45.2424C58.4564 44.4121 58.4564 44.409 57.5837 44.409C53.6535 44.409 49.7203 44.3843 45.7916 44.429C45.0207 44.4383 44.8834 44.2056 44.8881 43.4908C44.923 39.1012 44.923 34.7121 44.8881 30.3235C44.8881 29.7365 45.0515 29.6071 45.6174 29.6087C54.7657 29.6261 63.9141 29.6261 73.0625 29.6087C73.7425 29.6087 73.8334 29.8967 73.9213 30.4498C75.7716 41.6971 73.1226 51.7576 65.9746 60.6313C65.2666 61.5432 64.4792 62.3908 63.6217 63.164Z"
          fill="#4285F3"/>
</svg>
