<svg width="29" height="29" viewBox="0 0 29 29" fill="none" xmlns="http://www.w3.org/2000/svg">
<rect x="0.5" y="0.5" width="28" height="28" rx="14" fill="#FF6C3E"/>
<path d="M19.1193 19.1568C18.8802 19.3729 18.556 19.4943 18.2179 19.4943C17.8799 19.4943 17.5557 19.3729 17.3166 19.1568L14.5005 16.2469L11.6845 19.1558C11.5664 19.2642 11.4258 19.3505 11.2708 19.4096C11.1157 19.4686 10.9492 19.4994 10.781 19.5C10.6127 19.5006 10.446 19.4711 10.2904 19.4132C10.1348 19.3552 9.99341 19.27 9.87442 19.1625C9.75543 19.0549 9.66118 18.9271 9.5971 18.7864C9.53303 18.6458 9.50039 18.495 9.50107 18.3429C9.50176 18.1908 9.53575 18.0403 9.6011 17.9001C9.66644 17.7599 9.76184 17.6328 9.88179 17.5261L12.8115 14.501L9.88073 11.4739C9.76078 11.3672 9.66538 11.2401 9.60003 11.0999C9.53469 10.9597 9.5007 10.8092 9.50001 10.6571C9.49933 10.505 9.53196 10.3542 9.59604 10.2136C9.66012 10.0729 9.75437 9.94511 9.87336 9.83754C9.99234 9.72997 10.1337 9.64476 10.2893 9.58683C10.4449 9.5289 10.6116 9.49939 10.7799 9.50001C10.9482 9.50063 11.1147 9.53136 11.2697 9.59044C11.4248 9.64951 11.5654 9.73576 11.6834 9.8442L14.5005 12.755L17.3166 9.8442C17.4346 9.73576 17.5752 9.64951 17.7303 9.59044C17.8853 9.53136 18.0518 9.50063 18.2201 9.50001C18.3884 9.49939 18.5551 9.5289 18.7107 9.58683C18.8663 9.64476 19.0077 9.72997 19.1266 9.83754C19.2456 9.94511 19.3399 10.0729 19.404 10.2136C19.468 10.3542 19.5007 10.505 19.5 10.6571C19.4993 10.8092 19.4653 10.9597 19.4 11.0999C19.3346 11.2401 19.2392 11.3672 19.1193 11.4739L16.1895 14.501L19.1193 17.5261C19.2378 17.6331 19.3318 17.7602 19.396 17.9001C19.4601 18.04 19.4931 18.19 19.4931 18.3414C19.4931 18.4929 19.4601 18.6428 19.396 18.7827C19.3318 18.9226 19.2378 19.0497 19.1193 19.1568Z" fill="white"/>
</svg>
