<svg width="32" height="32" viewBox="0 0 32 32" fill="none" xmlns="http://www.w3.org/2000/svg">
    <path d="M31.9835 15.993C31.9835 20.4674 31.9544 24.9418 31.9998 29.4154C32.0155 30.9564 30.9005 32.0014 29.4065 32C20.4639 31.9934 11.5212 31.9915 2.57862 31.9944C1.51402 31.9944 0.648145 31.5948 0.206692 30.5851C0.0576486 30.2434 0.0108071 29.834 0.0100974 29.4577C0.000161112 20.9679 -0.00244236 12.4779 0.00228918 3.98758C0.00228918 3.48236 0.00228918 2.97715 0.00228918 2.47263C0.00725731 1.0507 0.929199 0.0860646 2.36215 0.00644186C2.49203 -0.00130903 2.62262 0.000100212 2.7525 0.000100212C11.5783 0.000100212 20.4026 0.00338842 29.2255 0.00996494C29.6875 0.00996494 30.1843 0.0804276 30.6038 0.257289C31.5428 0.647652 31.9864 1.40724 31.9856 2.43036C31.9809 6.95124 31.9802 11.4721 31.9835 15.993ZM17.2211 14.3505C17.2041 14.1194 17.1877 13.9982 17.1863 13.8749C17.1821 13.5113 17.1821 13.1473 17.1863 12.7827C17.1863 12.5396 17.0827 12.405 16.8315 12.405H12.7491C12.4879 12.405 12.4041 12.5403 12.4212 12.7905C12.446 13.1653 12.4531 13.5416 12.4517 13.9179C12.4356 17.993 12.4179 22.0681 12.3985 26.1431C12.3985 26.6646 12.4347 26.7012 12.9663 26.7026C14.161 26.7026 15.3559 26.7026 16.5511 26.7026C17.1764 26.7026 17.1899 26.6892 17.1899 26.0727C17.1899 23.5241 17.1899 20.9754 17.1941 18.4268C17.1941 17.4001 17.6704 16.618 18.5426 16.0966C19.9706 15.2447 21.674 15.9084 22.1048 17.496C22.2427 18.0182 22.3142 18.5556 22.3177 19.0955C22.3404 21.444 22.3269 23.7932 22.329 26.1417C22.329 26.6582 22.3737 26.7005 22.8968 26.7019C24.1043 26.7019 25.3109 26.7019 26.5165 26.7019C27.0133 26.7019 27.0622 26.6533 27.0629 26.153C27.0629 23.4754 27.0679 20.7978 27.058 18.1203C27.0576 17.2004 26.894 16.2879 26.5747 15.4244C25.8699 13.5219 24.5093 12.3804 22.4894 12.1077C20.4979 11.8385 18.7456 12.2972 17.4993 14.0102C17.434 14.099 17.3588 14.1807 17.2175 14.3505H17.2211ZM9.666 19.5521C9.666 17.3442 9.666 15.1364 9.666 12.9286C9.666 12.4565 9.60993 12.4015 9.1337 12.4008C7.9035 12.3971 6.6733 12.3971 5.44309 12.4008C4.98958 12.4008 4.92854 12.4621 4.92783 12.9124C4.92783 17.3388 4.92783 21.7651 4.92783 26.1911C4.92783 26.6406 4.98745 26.6977 5.44452 26.6991C6.65106 26.7033 7.8576 26.7033 9.06415 26.6991C9.63193 26.6991 9.66671 26.6667 9.66671 26.1009C9.66529 23.9184 9.66387 21.7355 9.66245 19.5521H9.666ZM7.52545 5.43488C6.11805 5.43841 5.15778 6.02888 4.79653 6.98506C4.22874 8.4838 5.10242 9.99804 6.69648 10.2813C7.93283 10.5011 9.12589 10.0488 9.63761 9.13347C10.1039 8.29989 10.0933 7.44236 9.62129 6.61654C9.11667 5.73083 8.27067 5.46659 7.52545 5.43488Z" fill="white" />
</svg>
    