<svg width="23" height="18" viewBox="0 0 23 18" fill="none" xmlns="http://www.w3.org/2000/svg">
    <path d="M20.4977 4.48105C20.5111 4.67634 20.5111 4.87163 20.5111 5.06872C20.5111 11.074 15.9708 18 7.66863 18V17.9964C5.21614 18 2.81459 17.2926 0.75 15.9589C1.10661 16.0021 1.46501 16.0237 1.8243 16.0246C3.85672 16.0264 5.83105 15.3398 7.42999 14.0753C5.49857 14.0384 3.80489 12.7704 3.21321 10.9192C3.88979 11.0506 4.58693 11.0236 5.251 10.841C3.14529 10.4126 1.63036 8.5497 1.63036 6.38623V6.32864C2.25778 6.68051 2.96028 6.8758 3.67886 6.8974C1.6956 5.56279 1.08427 2.90615 2.28191 0.829084C4.57352 3.6684 7.95463 5.3945 11.5842 5.57718C11.2204 3.99868 11.7174 2.34459 12.89 1.23496C14.7079 -0.485733 17.5671 -0.397539 19.2759 1.43205C20.2868 1.23136 21.2556 0.857882 22.1422 0.328715C21.8053 1.38075 21.1001 2.27439 20.1581 2.84226C21.0527 2.73606 21.9268 2.49488 22.75 2.1268C22.144 3.04114 21.3808 3.83759 20.4977 4.48105Z"
          fill="white"/>
</svg>
