<?xml version="1.0" encoding="utf-8"?>
<!-- Generator: Adobe Illustrator 26.0.3, SVG Export Plug-In . SVG Version: 6.00 Build 0)  -->
<svg version="1.1" id="Layer_1" xmlns="http://www.w3.org/2000/svg" xmlns:xlink="http://www.w3.org/1999/xlink" x="0px" y="0px"
	 viewBox="0 0 206.7 150.6" style="enable-background:new 0 0 206.7 150.6;" xml:space="preserve">
<style type="text/css">
	.st0{fill:#FFFFFF;}
</style>
<path class="st0" d="M58.6,126.4c-5.9,0-11.8,0.6-17.6-0.1c-20-2.5-34.2-19.7-33.8-40C7.6,66.8,23,50.4,42.6,48.6
	c1.9-0.2,2.7-0.8,3.3-2.6C55,21,77.3,5.3,103.4,5.4c26,0.1,48.1,15.8,57.1,40.7c0.7,1.8,1.5,2.4,3.4,2.6
	c21.1,2.1,36.4,20.1,35.4,41.3c-1,20.4-18.2,36.8-38.9,37c-9,0.1-18,0-27,0c-3.9,0-6.1-1.9-6-5.1c0.1-3,2.1-4.7,6-4.7
	c8.9,0,17.8,0.1,26.7,0c14.8-0.2,27-10.6,29.1-24.5c2.2-14.4-5.8-28-19.3-32.5c-3.2-1.1-6.7-1.5-10.1-1.7c-5.3-0.2-5.9-0.6-7.4-5.6
	c-6.3-20.4-19.8-33.3-40.8-36.7c-21.3-3.5-38.6,4.4-50.7,22.3c-3,4.4-4.8,9.8-6.6,14.9c-1.6,4.3-2.3,5.2-6.8,5.1
	C31.6,58,19,69,17.1,84.5c-1.7,14.7,8.1,28.7,23,31.7c5.5,1.1,11.3,0.8,16.9,1c5.5,0.1,10.9-0.1,16.4-0.1c3.6,0,5.6,1.8,5.6,4.8
	c0.1,3.1-2.1,5-5.8,5c-4.9,0.1-9.9,0-14.8,0C58.6,126.7,58.6,126.6,58.6,126.4z"/>
<path class="st0" d="M108.1,75c0,1.7,0,2.8,0,3.9c0,19.1,0,38.1,0,57.2c0,1.1,0.1,2.2-0.1,3.2c-0.6,2.5-2.3,3.8-4.9,3.8
	c-2.5,0-4-1.4-4.6-3.7c-0.3-1.1-0.2-2.3-0.2-3.5c0-18.9,0-37.9,0-56.8c0-1.1,0-2.3,0-4.1c-1.7,1.3-2.9,2.1-4.1,3
	c-5,3.8-10.1,7.6-15.1,11.4c-3,2.2-5.9,1.9-7.6-0.5c-1.7-2.3-1.1-5.2,1.6-7.3c8.8-6.7,17.6-13.3,26.4-19.9c2.5-1.9,4.8-1.9,7.3,0
	c8.8,6.7,17.6,13.3,26.4,19.9c2.7,2.1,3.3,4.9,1.7,7.2c-1.7,2.4-4.7,2.7-7.6,0.6c-5.4-4-10.8-8.1-16.2-12.2
	C110.3,76.5,109.5,75.9,108.1,75z"/>
</svg>
