<svg width="28" height="29" viewBox="0 0 28 29" fill="none" xmlns="http://www.w3.org/2000/svg">
<rect y="0.5" width="28" height="28" rx="14" fill="white"/>
<path d="M14.0003 12C13.6861 12 13.3751 12.0647 13.0848 12.1903C12.7946 12.3159 12.5309 12.5001 12.3087 12.7322C12.0866 12.9644 11.9104 13.24 11.7902 13.5433C11.67 13.8466 11.6081 14.1717 11.6081 14.5C11.6081 14.8283 11.67 15.1534 11.7902 15.4567C11.9104 15.76 12.0866 16.0356 12.3087 16.2678C12.5309 16.4999 12.7946 16.6841 13.0848 16.8097C13.3751 16.9353 13.6861 17 14.0003 17C14.6347 16.9998 15.2431 16.7363 15.6917 16.2674C16.1402 15.7984 16.3921 15.1625 16.3919 14.4994C16.3918 13.8364 16.1396 13.2006 15.6909 12.7318C15.2422 12.2631 14.6336 11.9998 13.9992 12H14.0003ZM6.3922 12C6.07805 12 5.76698 12.0647 5.47674 12.1903C5.18651 12.3159 4.92279 12.5001 4.70066 12.7322C4.47852 12.9644 4.30231 13.24 4.1821 13.5433C4.06188 13.8466 4 14.1717 4 14.5C4 14.8283 4.06188 15.1534 4.1821 15.4567C4.30231 15.76 4.47852 16.0356 4.70066 16.2678C4.92279 16.4999 5.18651 16.6841 5.47674 16.8097C5.76698 16.9353 6.07805 17 6.3922 17C7.02665 16.9998 7.63505 16.7363 8.08358 16.2674C8.5321 15.7984 8.78399 15.1625 8.78385 14.4994C8.7837 13.8364 8.53153 13.2006 8.08281 12.7318C7.63408 12.2631 7.02665 11.9998 6.3922 12ZM21.6083 12C21.2942 12 20.9831 12.0647 20.6929 12.1903C20.4027 12.3159 20.1389 12.5001 19.9168 12.7322C19.6947 12.9644 19.5185 13.24 19.3982 13.5433C19.278 13.8466 19.2162 14.1717 19.2162 14.5C19.2162 14.8283 19.278 15.1534 19.3982 15.4567C19.5185 15.76 19.6947 16.0356 19.9168 16.2678C20.1389 16.4999 20.4027 16.6841 20.6929 16.8097C20.9831 16.9353 21.2942 17 21.6083 17C22.2428 16.9998 22.8512 16.7363 23.2997 16.2674C23.7482 15.7984 24.0001 15.1625 24 14.4994C23.9999 13.8364 23.7477 13.2006 23.299 12.7318C22.8502 12.2631 22.2428 11.9998 21.6083 12Z" fill="#585353"/>
</svg>
