<svg width="39" height="40" viewBox="0 0 39 40" fill="none" xmlns="http://www.w3.org/2000/svg">
    <path d="M0.127213 19.861C0.129931 23.3279 1.02611 26.7333 2.726 29.736L0 40L10.3043 37.2209C13.154 38.8017 16.3467 39.6297 19.5909 39.6295C23.4358 39.6239 27.1928 38.456 30.3864 36.2733C33.5801 34.0907 36.0671 30.9914 37.5326 27.3675C38.9982 23.7437 39.3766 19.7581 38.6198 15.915C37.8631 12.0719 36.0053 8.54393 33.2815 5.77742C30.5576 3.01092 27.0901 1.13017 23.3175 0.3731C19.545 -0.383968 15.637 0.0166621 12.0878 1.52431C8.53867 3.03195 5.50788 5.57887 3.37885 8.84287C1.24983 12.1069 0.11823 15.9413 0.127213 19.861ZM6.26072 29.2358L5.87908 28.6151C3.97752 25.5234 3.13757 21.8752 3.49125 18.2438C3.84493 14.6125 5.37218 11.2039 7.83297 8.55376C10.2938 5.90364 13.5486 4.16223 17.0859 3.60325C20.6232 3.04426 24.2424 3.69939 27.3747 5.46565C30.507 7.23192 32.9748 10.0092 34.3903 13.361C35.8057 16.7127 36.0886 20.449 35.1944 23.9825C34.3002 27.516 32.2796 30.6464 29.4503 32.8818C26.6209 35.1171 23.1432 36.3306 19.5636 36.3316C16.6854 36.3235 13.8617 35.5302 11.3856 34.0343L10.795 33.6823L4.63421 35.2941L6.26072 29.2358Z" fill="white" />
    <path fill-rule="evenodd" clip-rule="evenodd" d="M15.0742 11.826C14.7052 11.0308 14.3178 11.0129 13.9673 11.004C13.6168 10.995 13.3493 11.004 13.0449 11.004C12.7946 11.0118 12.5485 11.0689 12.3218 11.1719C12.095 11.2748 11.8922 11.4213 11.7258 11.6026C11.1686 12.1146 10.7275 12.7333 10.4305 13.4194C10.1335 14.1054 9.98721 14.8439 10.0009 15.5877C10.0009 17.9376 11.7719 20.2072 12.0118 20.5199C12.2516 20.8326 15.4247 25.8184 20.4335 27.7305C24.5936 29.321 25.4422 28.9993 26.3462 28.9189C27.2502 28.8385 29.2426 27.7484 29.6577 26.6583C29.9757 25.944 30.0749 25.1562 29.9436 24.3888C29.8145 24.1922 29.4917 24.0761 29.0212 23.8348C28.5508 23.5936 26.1064 22.4409 25.6544 22.2801C25.2024 22.1193 24.8795 22.0478 24.5475 22.5214C24.2154 22.9949 23.2745 24.0761 22.9886 24.3888C22.7026 24.7015 22.4167 24.7551 21.9186 24.5139C20.4437 23.9498 19.0824 23.1393 17.8968 22.1193C16.8121 21.1546 15.8798 20.0407 15.1295 18.8133C14.8436 18.3308 15.1295 18.0717 15.3509 17.8393C15.5723 17.607 15.8398 17.2764 16.0889 16.9994C16.2918 16.7594 16.4565 16.4914 16.5777 16.2042C16.6472 16.0761 16.6835 15.9335 16.6835 15.7887C16.6835 15.644 16.6472 15.5014 16.5777 15.3733C16.4486 15.132 15.4985 12.7731 15.0557 11.7992" fill="white" />
</svg>
    